# xmcd
#
# Track frame offsets: 
#        150
#        11823
#        25713
#        39671
#        49147
#        61343
#        73316
#        88032
#        98210
#        110970
#        123393
#        133381
#
# Disc length: 1956 seconds
#
# Revision: 0
# Processed by: cddbd v1.5.2PL0 Copyright (c) Steve Scherf et al.
# Submitted via: ExactAudioCopy v1.0b1
#
DISCID=b307a20c
DTITLE=Albert Collins - Truckin' With Albert Collins
DYEAR=1991
DGENRE=Texas Blues
TTITLE0=Frosty (1962 Single Version)
TTITLE1=Hot 'N Cold
TTITLE2=Frostbite
TTITLE3=Tremble
TTITLE4=Thaw Out
TTITLE5=Dyin' Flu
TTITLE6=Don't Lose Your Cool
TTITLE7=Backstroke
TTITLE8=Kool Aide
TTITLE9=Shiver 'N Shake
TTITLE10=Icy Blue
TTITLE11=Sno-Cone Part 2
EXTD=
EXTT0=
EXTT1=
EXTT2=
EXTT3=
EXTT4=
EXTT5=
EXTT6=
EXTT7=
EXTT8=
EXTT9=
EXTT10=
EXTT11=
PLAYORDER=
